<?xml version="1.0" encoding="UTF-8" standalone="no"?>
<!DOCTYPE svg PUBLIC "-//W3C//DTD SVG 1.1//EN" "http://www.w3.org/Graphics/SVG/1.1/DTD/svg11.dtd">
<svg width="100%" height="100%" viewBox="0 0 1000 1000" version="1.1" xmlns="http://www.w3.org/2000/svg" xmlns:xlink="http://www.w3.org/1999/xlink" xml:space="preserve" xmlns:serif="http://www.serif.com/" style="fill-rule:evenodd;clip-rule:evenodd;stroke-linejoin:round;stroke-miterlimit:2;">
    <path d="M1000,304.348L1000,695.652C1000,863.626 863.626,1000 695.652,1000L304.348,1000C136.374,1000 0,863.626 0,695.652L0,304.348C0,136.374 136.374,0 304.348,0L695.652,0C863.626,0 1000,136.374 1000,304.348Z" style="fill:rgb(23,23,23);"/>
    <g transform="matrix(1.330404,0,0,1.330404,-152.02109,-188.049209)">
        <path d="M865.918,310.197L865.918,724.149C865.918,817.34 790.259,892.999 697.069,892.999L283.116,892.999C189.926,892.999 114.267,817.34 114.267,724.149L114.267,310.197C114.267,217.006 189.926,141.347 283.116,141.347L697.069,141.347C790.259,141.347 865.918,217.006 865.918,310.197Z" style="fill:rgb(11,13,16);"/>
        <path d="M865.918,310.197L865.918,724.149C865.918,817.34 790.259,892.999 697.069,892.999L283.116,892.999C189.926,892.999 114.267,817.34 114.267,724.149L114.267,310.197C114.267,217.006 189.926,141.347 283.116,141.347L697.069,141.347C790.259,141.347 865.918,217.006 865.918,310.197ZM803.28,310.197C803.28,251.577 755.689,203.985 697.069,203.985L283.116,203.985C224.496,203.985 176.904,251.577 176.904,310.197L176.904,724.149C176.904,782.769 224.496,830.361 283.116,830.361L697.069,830.361C755.689,830.361 803.28,782.769 803.28,724.149L803.28,310.197Z" style="fill:rgb(242,244,247);"/>
    </g>
    <g transform="matrix(11.662843,0,0,11.662843,-2848.8769,-4305.237098)">
        <g transform="matrix(50,0,0,50,254.940711,429.512516)">
            <path d="M0.066,-0L0.066,-0.7L0.354,-0.7C0.398,-0.7 0.437,-0.691 0.471,-0.673C0.504,-0.656 0.53,-0.631 0.549,-0.599C0.568,-0.567 0.578,-0.529 0.578,-0.485L0.578,-0.471C0.578,-0.428 0.568,-0.39 0.548,-0.357C0.529,-0.325 0.502,-0.3 0.469,-0.283C0.435,-0.265 0.397,-0.256 0.354,-0.256L0.198,-0.256L0.198,-0L0.066,-0ZM0.198,-0.376L0.341,-0.376C0.372,-0.376 0.398,-0.385 0.417,-0.402C0.436,-0.419 0.446,-0.443 0.446,-0.473L0.446,-0.483C0.446,-0.513 0.436,-0.537 0.417,-0.554C0.398,-0.571 0.372,-0.58 0.341,-0.58L0.198,-0.58L0.198,-0.376Z" style="fill:rgb(242,244,247);fill-rule:nonzero;"/>
        </g>
        <g transform="matrix(50,0,0,50,284.940711,429.512516)">
            <path d="M0.046,-0L0.046,-0.116L0.138,-0.116L0.138,-0.584L0.046,-0.584L0.046,-0.7L0.334,-0.7C0.428,-0.7 0.499,-0.676 0.548,-0.629C0.598,-0.581 0.622,-0.51 0.622,-0.416L0.622,-0.284C0.622,-0.19 0.598,-0.119 0.548,-0.072C0.499,-0.024 0.428,-0 0.334,-0L0.046,-0ZM0.27,-0.12L0.336,-0.12C0.389,-0.12 0.428,-0.134 0.453,-0.162C0.478,-0.19 0.49,-0.229 0.49,-0.28L0.49,-0.42C0.49,-0.471 0.478,-0.511 0.453,-0.538C0.428,-0.566 0.389,-0.58 0.336,-0.58L0.27,-0.58L0.27,-0.12Z" style="fill:rgb(242,244,247);fill-rule:nonzero;"/>
        </g>
        <g transform="matrix(50,0,0,50,318.240711,429.512516)">
        </g>
    </g>
</svg>
